<svg width="1165" height="233" viewBox="0 0 1165 233" fill="none" xmlns="http://www.w3.org/2000/svg">
<rect width="1165" height="233" />
<path d="M226.103 1.64861L225.603 1.65252C226.102 1.64877 226.103 1.64944 226.103 1.65057V1.67596C226.103 1.69371 226.103 1.72023 226.104 1.75506C226.104 1.82586 226.104 1.93214 226.105 2.07146C226.108 2.35031 226.11 2.76465 226.114 3.30486C226.122 4.38555 226.133 5.9719 226.147 7.99432C226.176 12.0398 226.215 17.831 226.258 24.8127C226.344 38.776 226.448 57.5029 226.517 76.5568C226.586 95.6106 226.62 114.993 226.568 130.266C226.517 145.517 226.379 156.717 226.1 159.366C224.985 169.92 220.003 187.116 206.521 205.173C192.981 223.306 170.313 231.222 154.901 232.349C147.219 232.91 108.598 232.91 71.9375 232.77C53.5987 232.7 35.7384 232.595 22.4629 232.508C15.8252 232.464 10.3332 232.425 6.50098 232.397C4.58509 232.382 3.08374 232.37 2.06152 232.362C1.55064 232.359 1.15909 232.356 0.895508 232.354C0.763875 232.353 0.663584 232.351 0.59668 232.351H0.498047C0.496986 232.351 0.495981 232.35 0.5 231.851L0.496094 232.351L0 232.347V185.787L0.141602 185.642L3.73047 181.939C22.8962 162.102 59.5492 123.238 77.7422 100.553L78.6602 99.3986C98.1283 74.7492 129.163 24.0246 142.443 1.39959L142.589 1.15252H226.099L226.103 1.64861ZM171.375 44.9142L171.228 45.1457C168.43 49.5417 163.845 56.7506 159.179 64.089L146.649 83.8127C138.873 96.0754 109.814 134.122 100.524 145.51C93.106 154.604 70.881 178.246 60.6846 188.943L59.8887 189.778L61.043 189.788L61.0469 189.288C61.0427 189.788 61.0434 189.788 61.0439 189.788H61.0986C61.1358 189.789 61.1916 189.789 61.2646 189.789C61.4112 189.79 61.6291 189.793 61.9131 189.795C62.4813 189.8 63.3159 189.806 64.3809 189.815C66.5114 189.831 69.5656 189.853 73.2568 189.878C80.6395 189.928 90.5746 189.989 100.782 190.029C121.18 190.11 142.716 190.11 147.108 189.786C156.007 189.13 162.302 184.89 169.278 178.876C176.319 172.807 180.872 164.79 181.739 155.464C181.955 153.14 182.062 145.086 182.102 134.358C182.142 123.612 182.115 110.147 182.062 96.9699C182.008 83.7932 181.928 70.9033 181.861 61.3078C181.828 56.5101 181.798 52.5348 181.776 49.7599C181.766 48.3732 181.757 47.2857 181.751 46.5451C181.748 46.1749 181.746 45.8905 181.744 45.6994C181.743 45.6044 181.743 45.532 181.742 45.4836C181.742 45.4595 181.741 45.4401 181.741 45.4279V45.4113C181.741 45.4105 181.741 45.41 181.241 45.4142L181.741 45.4103L181.737 44.9142H171.375Z" fill="#7BB799"/>
<path d="M1035.38 198C1035.38 172.576 1035.38 146.849 1035.38 120.82C1035.38 94.7907 1035.38 69.064 1035.38 43.64C1042.04 43.64 1048.7 43.64 1055.36 43.64C1062.17 43.64 1068.83 43.64 1075.34 43.64C1083.36 58.0167 1091.45 72.5447 1099.62 87.224C1107.95 101.903 1116.12 116.431 1124.14 130.808C1124.14 116.431 1124.14 101.903 1124.14 87.224C1124.14 72.5447 1124.14 58.0167 1124.14 43.64C1130.65 43.64 1137.15 43.64 1143.66 43.64C1150.17 43.64 1156.68 43.64 1163.18 43.64C1163.18 69.064 1163.18 94.7907 1163.18 120.82C1163.18 146.849 1163.18 172.576 1163.18 198C1156.68 198 1150.02 198 1143.21 198C1136.55 198 1129.89 198 1123.23 198C1115.21 183.623 1107.04 169.095 1098.72 154.416C1090.54 139.737 1082.45 125.209 1074.43 110.832C1074.43 125.209 1074.43 139.737 1074.43 154.416C1074.43 169.095 1074.43 183.623 1074.43 198C1067.92 198 1061.41 198 1054.91 198C1048.4 198 1041.89 198 1035.38 198Z" fill="#7BB799"/>
<path d="M964.916 198C964.916 172.576 964.916 146.849 964.916 120.82C964.916 94.7907 964.916 69.064 964.916 43.64C971.574 43.64 978.233 43.64 984.892 43.64C991.55 43.64 998.133 43.64 1004.64 43.64C1004.64 69.064 1004.64 94.7907 1004.64 120.82C1004.64 146.849 1004.64 172.576 1004.64 198C998.133 198 991.55 198 984.892 198C978.233 198 971.574 198 964.916 198Z" fill="#7BB799"/>
<path d="M781.56 198C781.56 172.576 781.56 146.849 781.56 120.82C781.56 94.7907 781.56 69.064 781.56 43.64C790.943 43.64 800.325 43.64 809.708 43.64C819.242 43.64 828.625 43.64 837.856 43.64C849.509 43.64 859.648 45.91 868.274 50.45C876.9 54.8387 883.634 61.0433 888.477 69.064C893.32 77.0847 895.741 86.4673 895.741 97.212C895.741 107.805 893.32 117.112 888.477 125.133C883.786 133.154 877.278 139.358 868.955 143.747C860.783 148.136 851.476 150.33 841.034 150.33C837.705 150.33 834.375 150.33 831.046 150.33C827.868 150.33 824.614 150.33 821.285 150.33C821.285 158.199 821.285 166.144 821.285 174.165C821.285 182.186 821.285 190.131 821.285 198C814.778 198 808.195 198 801.536 198C794.877 198 788.219 198 781.56 198ZM837.856 79.279C835.132 79.279 832.332 79.279 829.457 79.279C826.733 79.279 824.009 79.279 821.285 79.279C821.285 85.3323 821.285 91.4613 821.285 97.666C821.285 103.719 821.285 109.773 821.285 115.826C824.312 115.826 827.414 115.826 830.592 115.826C833.921 115.826 837.099 115.826 840.126 115.826C844.817 115.826 848.601 114.086 851.476 110.605C854.503 107.124 856.016 102.811 856.016 97.666C856.016 92.3693 854.427 87.9807 851.249 84.5C848.071 81.0193 843.607 79.279 837.856 79.279Z" fill="#7BB799"/>
<path d="M683.194 201.632C672.147 201.632 661.932 199.665 652.549 195.73C643.167 191.644 635.07 185.969 628.26 178.705C621.45 171.441 616.154 162.891 612.37 153.054C608.587 143.066 606.695 132.246 606.695 120.593C606.695 108.94 608.587 98.1957 612.37 88.359C616.154 78.5223 621.45 70.0477 628.26 62.935C635.07 55.671 643.167 50.0717 652.549 46.137C661.932 42.051 672.147 40.008 683.194 40.008C694.242 40.008 704.381 42.051 713.612 46.137C722.995 50.0717 731.091 55.671 737.901 62.935C744.863 70.0477 750.235 78.5223 754.018 88.359C757.802 98.1957 759.693 108.94 759.693 120.593C759.693 132.246 757.802 143.066 754.018 153.054C750.235 162.891 744.863 171.441 737.901 178.705C731.091 185.969 722.995 191.644 713.612 195.73C704.381 199.665 694.242 201.632 683.194 201.632ZM683.194 164.858C690.61 164.858 696.966 163.042 702.262 159.41C707.559 155.627 711.645 150.406 714.52 143.747C717.547 137.088 719.06 129.37 719.06 120.593C719.06 111.816 717.547 104.173 714.52 97.666C711.645 91.1587 707.559 86.089 702.262 82.457C696.966 78.6737 690.61 76.782 683.194 76.782C675.93 76.782 669.574 78.598 664.126 82.23C658.83 85.862 654.668 91.0073 651.641 97.666C648.766 104.173 647.328 111.816 647.328 120.593C647.328 129.37 648.766 137.088 651.641 143.747C654.668 150.406 658.83 155.627 664.126 159.41C669.574 163.042 675.93 164.858 683.194 164.858Z" fill="#7BB799"/>
<path d="M476.75 198C476.75 172.576 476.75 146.849 476.75 120.82C476.75 94.7907 476.75 69.064 476.75 43.64C485.83 43.64 494.91 43.64 503.99 43.64C513.222 43.64 522.377 43.64 531.457 43.64C542.959 43.64 553.022 45.8343 561.648 50.223C570.274 54.4603 576.933 60.5137 581.624 68.383C586.467 76.101 588.888 85.181 588.888 95.623C588.888 104.552 587.072 112.497 583.44 119.458C579.808 126.419 574.89 132.094 568.685 136.483C574.739 146.622 580.792 156.913 586.845 167.355C593.05 177.646 599.179 187.861 605.232 198C597.817 198 590.402 198 582.986 198C575.571 198 568.156 198 560.74 198C556.049 189.525 551.282 180.899 546.439 172.122C541.748 163.345 536.981 154.719 532.138 146.244C529.566 146.244 526.917 146.244 524.193 146.244C521.621 146.244 519.048 146.244 516.475 146.244C516.475 154.719 516.475 163.345 516.475 172.122C516.475 180.899 516.475 189.525 516.475 198C509.968 198 503.385 198 496.726 198C490.068 198 483.409 198 476.75 198ZM531.457 79.506C529.036 79.506 526.539 79.506 523.966 79.506C521.545 79.506 519.048 79.506 516.475 79.506C516.475 85.1053 516.475 90.7047 516.475 96.304C516.475 101.903 516.475 107.503 516.475 113.102C519.351 113.102 522.226 113.102 525.101 113.102C527.977 113.102 530.852 113.102 533.727 113.102C538.267 113.102 541.975 111.513 544.85 108.335C547.726 105.006 549.163 100.995 549.163 96.304C549.163 91.4613 547.574 87.451 544.396 84.273C541.37 81.095 537.057 79.506 531.457 79.506Z" fill="#7BB799"/>
<path d="M322.683 198C322.683 172.576 322.683 146.849 322.683 120.82C322.683 94.7907 322.683 69.064 322.683 43.64C331.763 43.64 340.919 43.64 350.15 43.64C359.381 43.64 368.537 43.64 377.617 43.64C388.816 43.64 399.106 45.6073 408.489 49.542C417.872 53.3253 426.044 58.6977 433.005 65.659C439.966 72.6203 445.339 80.7923 449.122 90.175C453.057 99.4063 455.024 109.546 455.024 120.593C455.024 131.64 453.057 141.855 449.122 151.238C445.339 160.621 439.966 168.868 433.005 175.981C426.044 182.942 417.872 188.39 408.489 192.325C399.106 196.108 388.816 198 377.617 198C368.537 198 359.381 198 350.15 198C340.919 198 331.763 198 322.683 198ZM377.617 79.506C375.196 79.506 372.699 79.506 370.126 79.506C367.553 79.506 364.981 79.506 362.408 79.506C362.408 93.126 362.408 106.897 362.408 120.82C362.408 134.743 362.408 148.514 362.408 162.134C364.981 162.134 367.553 162.134 370.126 162.134C372.699 162.134 375.196 162.134 377.617 162.134C385.184 162.134 391.767 160.318 397.366 156.686C402.965 153.054 407.278 148.136 410.305 141.931C413.332 135.575 414.845 128.462 414.845 120.593C414.845 112.724 413.332 105.687 410.305 99.482C407.278 93.2773 402.965 88.4347 397.366 84.954C391.767 81.322 385.184 79.506 377.617 79.506Z" fill="#7BB799"/>
</svg>
