<?xml version="1.0" standalone="no"?>
<!DOCTYPE svg PUBLIC "-//W3C//DTD SVG 20010904//EN"
 "http://www.w3.org/TR/2001/REC-SVG-20010904/DTD/svg10.dtd">
<svg version="1.0" xmlns="http://www.w3.org/2000/svg"
 width="391.000000pt" height="391.000000pt" viewBox="0 0 391.000000 391.000000"
 preserveAspectRatio="xMidYMid meet">
<metadata>
Created by potrace 1.14, written by Peter Selinger 2001-2017
</metadata>
<g transform="translate(0.000000,391.000000) scale(0.100000,-0.100000)"
fill="#000000" stroke="none">
<path d="M0 1955 l0 -1955 1955 0 1955 0 0 1955 0 1955 -1955 0 -1955 0 0
-1955z m2417 1376 c168 -42 301 -116 392 -218 192 -216 185 -552 -19 -820
l-39 -53 42 -29 c131 -92 257 -275 293 -428 12 -53 15 -102 11 -218 -8 -231
-50 -351 -187 -533 -118 -157 -317 -333 -465 -410 -42 -22 -63 -26 -130 -27
-74 0 -84 3 -140 36 -66 39 -259 126 -345 155 -106 36 -368 18 -540 -38 -36
-12 -120 -45 -188 -75 -67 -29 -137 -53 -155 -53 -61 0 -107 55 -107 127 0 91
87 198 260 319 44 31 81 59 81 62 1 4 3 70 4 147 1 77 5 361 10 631 4 270 4
553 0 628 -6 122 -9 137 -24 130 -102 -44 -179 -39 -233 16 -35 35 -38 42 -38
94 0 72 22 116 101 201 159 169 479 319 794 370 138 22 512 14 622 -14z"/>
<path d="M1919 2902 c-10 -2 -20 -13 -23 -25 -3 -12 -6 -181 -6 -375 l0 -353
31 18 c62 36 165 141 197 201 84 158 77 357 -16 455 -52 55 -133 90 -183 79z"/>
<path d="M1993 1744 l-103 -27 0 -116 c0 -64 3 -153 6 -198 l7 -81 56 -6 c148
-17 269 -51 399 -112 90 -42 93 -43 111 -25 11 11 26 51 35 89 14 62 14 80 2
149 -21 116 -51 185 -107 247 -94 103 -219 128 -406 80z"/>
</g>
</svg>
